<?xml version="1.0" encoding="UTF-8" standalone="no"?>
<svg xmlns="http://www.w3.org/2000/svg" width="1024" height="1024" viewBox="0 0 1024 1024" role="img" aria-labelledby="title desc">
  <title id="title">Spiders-WM spider mark</title>
  <desc id="desc">Minimal terminal-inspired centered spider icon for Spiders-WM.</desc>
  <rect width="1024" height="1024" fill="#0b0d10"/>
  <g stroke="#f2efe6" stroke-width="12" stroke-linecap="round" stroke-linejoin="round" fill="none">
    <ellipse cx="512" cy="420" rx="118" ry="86"/>
    <circle cx="474" cy="410" r="9" fill="#f2efe6" stroke="none"/>
    <circle cx="550" cy="410" r="9" fill="#f2efe6" stroke="none"/>
    <path d="M492 448 Q512 464 532 448"/>
    <path d="M402 386 L312 330 L246 330"/>
    <path d="M398 420 L286 420 L212 444"/>
    <path d="M406 456 L314 516 L258 584"/>
    <path d="M622 386 L712 330 L778 330"/>
    <path d="M626 420 L738 420 L812 444"/>
    <path d="M618 456 L710 516 L766 584"/>
    <path d="M460 502 L418 608 L370 732"/>
    <path d="M564 502 L606 608 L654 732"/>
  </g>
</svg>
